<?xml version="1.0" encoding="UTF-8"?>
<svg xmlns="http://www.w3.org/2000/svg" viewBox="170.5 -0.5 21.5 21.5" width="64" height="64">
  <circle fill="#0079AD" cx="181.008" cy="10.165" r="10.126"/>
  <circle fill="none" stroke="#0279B6" stroke-width="0.075" stroke-miterlimit="3.864" cx="181.008" cy="10.165" r="10.126"/>
  <path fill-rule="evenodd" clip-rule="evenodd" fill="#E7E7EA" d="M179.455,11.049h1.599c0.352,0,0.785,0,1.097,0.177  c0.311,0.176,0.528,0.541,0.528,0.893c0,0.379-0.177,0.758-0.488,0.962c-0.338,0.229-0.839,0.203-1.232,0.203h-1.503V11.049   M179.455,7.366h1.313c0.365,0,0.935-0.04,1.246,0.136c0.298,0.176,0.461,0.501,0.461,0.839c0,0.313-0.137,0.65-0.394,0.841  c-0.325,0.243-0.771,0.215-1.15,0.215h-1.477V7.366z M177.288,5.713v9.289h4.157c0.799,0,1.707,0,2.384-0.501  c0.649-0.473,1.137-1.191,1.137-2.004c0-1.205-0.784-2.085-1.936-2.314v-0.027c0.975-0.244,1.679-0.948,1.679-2.004  c0-0.881-0.393-1.557-1.138-2.031c-0.636-0.407-1.394-0.407-2.126-0.407H177.288z"/>
</svg>
