<?xml version="1.0" encoding="UTF-8"?>
<!-- Generator: Adobe Illustrator 13.0.1, SVG Export Plug-In  -->
<!DOCTYPE svg PUBLIC "-//W3C//DTD SVG 1.1//EN" "http://www.w3.org/Graphics/SVG/1.1/DTD/svg11.dtd" [
	<!ENTITY ns_flows "http://ns.adobe.com/Flows/1.0/">
]>
<svg version="1.1" xmlns="http://www.w3.org/2000/svg" xmlns:xlink="http://www.w3.org/1999/xlink" xmlns:a="http://ns.adobe.com/AdobeSVGViewerExtensions/3.0/" x="0px" y="0px" width="217px" height="37px" viewBox="-0.128 -0.583 217 37" enable-background="new -0.128 -0.583 217 37" xml:space="preserve">
<defs>
</defs>
<path fill-rule="evenodd" clip-rule="evenodd" fill="#25221F" d="M0,20.111v15.457h6.918c1.329,0,2.839,0,3.966-0.832  c1.082-0.789,1.894-1.983,1.894-3.336c0-2.006-1.307-3.471-3.222-3.854c1.622-0.449,2.794-1.622,2.794-3.38  c0-1.465-0.654-2.591-1.894-3.38c-1.059-0.676-2.322-0.676-3.538-0.676H0 M3.606,22.859h2.186c0.608,0,1.555-0.067,2.073,0.226  c0.495,0.293,0.767,0.834,0.767,1.397c0,0.519-0.227,1.082-0.654,1.397c-0.541,0.405-1.284,0.36-1.915,0.36H3.606V22.859z   M3.606,28.989h2.658c0.586,0,1.307,0,1.826,0.293c0.518,0.293,0.879,0.901,0.879,1.487c0,0.631-0.293,1.263-0.812,1.601  c-0.563,0.383-1.397,0.337-2.051,0.337H3.606V28.989z M24.785,35.568c-0.18-0.563-0.225-1.125-0.225-1.711v-5.342  c0-1.373,0.112-2.636-1.06-3.582c-0.924-0.767-2.456-1.037-3.628-1.037c-2.412,0-5.116,0.812-5.454,3.584l3.134,0.293  c0-1.127,0.924-1.668,1.982-1.668c0.496,0,1.06,0.158,1.353,0.541c0.338,0.428,0.293,1.014,0.293,1.51v0.27  c-1.397,0.135-3.224,0.225-4.53,0.721c-1.51,0.564-2.569,1.713-2.569,3.403c0,2.163,1.578,3.245,3.606,3.245  c1.713,0,2.704-0.654,3.651-2.006c-0.023,0.586,0.021,1.193,0.156,1.779H24.785z M21.181,30.543c0,0.812,0.021,1.488-0.451,2.209  c-0.383,0.585-0.991,0.946-1.667,0.946c-0.924,0-1.465-0.608-1.465-1.51c0-1.668,2.32-1.961,3.583-2.096V30.543z M26.695,35.568  h3.313v-6.15c0-0.721,0.045-1.375,0.383-2.029c0.27-0.518,0.811-0.855,1.396-0.855c1.667,0,1.51,1.713,1.51,2.885v6.15h3.313v-7.074  c0-1.037,0-2.479-0.631-3.335c-0.676-0.925-1.735-1.263-2.816-1.263c-1.668,0-2.615,0.699-3.291,2.164l-0.045-1.938h-3.132V35.568z   M48.863,28.291c-0.225-2.682-2.343-4.395-5.002-4.395c-3.606,0-5.724,2.547-5.724,6.062c0,3.38,2.051,5.837,5.521,5.837  c2.794,0,4.935-1.689,5.205-4.529l-3.154-0.181c-0.112,1.06-0.698,1.983-1.87,1.983c-1.893,0-1.916-1.983-1.916-3.381  c0-1.465,0.226-3.268,2.052-3.268c1.193,0,1.734,1.016,1.734,2.051L48.863,28.291z M55.483,23.896c-3.492,0-5.431,2.592-5.431,5.927  c0,3.312,1.915,5.972,5.431,5.972c3.38,0,5.521-2.592,5.521-5.859C61.004,26.556,59.066,23.896,55.483,23.896z M55.507,26.082  c0.766,0,1.307,0.293,1.576,1.037c0.315,0.855,0.361,1.938,0.361,2.839c0,1.375-0.091,3.628-1.961,3.628  c-1.893,0-1.87-2.794-1.87-4.102C53.613,28.177,53.726,26.082,55.507,26.082z M73.889,23.513c-0.946-2.682-3.155-3.627-5.859-3.627  c-1.42,0-2.749,0.314-3.876,1.26c-1.104,0.925-1.667,2.187-1.667,3.629c0,3.381,2.704,4.191,5.453,4.755  c0.946,0.202,2.704,0.45,2.704,1.735c0,1.284-1.375,1.668-2.411,1.668c-1.601,0-2.772-0.563-3.222-2.187l-3.336,0.767  c0.698,3.02,3.336,4.281,6.242,4.281c1.555,0,3.244-0.293,4.484-1.262c1.194-0.924,1.915-2.366,1.915-3.876  c0-1.532-0.767-2.817-2.028-3.651c-1.082-0.721-2.771-1.035-4.033-1.307c-0.879-0.158-2.231-0.428-2.231-1.555  c0-1.194,1.172-1.442,2.141-1.442c1.375,0,2.209,0.519,2.659,1.826L73.889,23.513z M85.377,35.568  c-0.181-0.563-0.225-1.125-0.225-1.711v-5.342c0-1.373,0.112-2.636-1.06-3.582c-0.924-0.767-2.456-1.037-3.627-1.037  c-2.412,0-5.116,0.812-5.454,3.584l3.133,0.293c0-1.127,0.923-1.668,1.982-1.668c0.495,0,1.06,0.158,1.353,0.541  c0.338,0.428,0.293,1.014,0.293,1.51v0.27c-1.397,0.135-3.223,0.225-4.53,0.721c-1.51,0.564-2.569,1.713-2.569,3.403  c0,2.163,1.578,3.245,3.606,3.245c1.712,0,2.704-0.654,3.65-2.006c-0.022,0.586,0.022,1.193,0.157,1.779H85.377z M81.772,30.543  c0,0.812,0.021,1.488-0.451,2.209c-0.383,0.585-0.991,0.946-1.668,0.946c-0.923,0-1.464-0.608-1.464-1.51  c0-1.668,2.319-1.961,3.583-2.096V30.543z M90.556,29.125c0-1.217,0.225-2.952,1.823-2.952c1.826,0,1.826,2.388,1.826,3.673  c0,1.239,0,3.629-1.87,3.629c-0.608,0-1.082-0.293-1.396-0.789c-0.361-0.563-0.383-1.285-0.383-1.916V29.125z M87.197,35.568H89  c0.203-0.607,0.339-1.262,0.743-1.756c0.834,1.373,1.623,1.982,3.269,1.982c3.446,0,4.642-2.951,4.642-5.949  c0-2.703-0.992-5.949-4.259-5.949c-1.285,0-2.231,0.541-2.794,1.668l-0.092-5.453h-3.312V35.568z M109.253,35.568  c-0.181-0.563-0.226-1.125-0.226-1.711v-5.342c0-1.373,0.113-2.636-1.06-3.582c-0.924-0.767-2.455-1.037-3.627-1.037  c-2.411,0-5.115,0.812-5.453,3.584l3.132,0.293c0-1.127,0.924-1.668,1.982-1.668c0.496,0,1.06,0.158,1.353,0.541  c0.338,0.428,0.293,1.014,0.293,1.51v0.27c-1.397,0.135-3.223,0.225-4.529,0.721c-1.51,0.564-2.568,1.713-2.568,3.403  c0,2.163,1.576,3.245,3.604,3.245c1.713,0,2.704-0.654,3.651-2.006c-0.023,0.586,0.021,1.193,0.156,1.779H109.253z M105.647,30.543  c0,0.812,0.021,1.488-0.451,2.209c-0.383,0.585-0.991,0.946-1.667,0.946c-0.924,0-1.465-0.608-1.465-1.51  c0-1.668,2.321-1.961,3.583-2.096V30.543z M120.853,35.568V20.111h-3.313v5.228c-0.721-1.059-1.578-1.442-2.861-1.442  c-3.336,0-4.191,3.357-4.191,6.084c0,2.66,0.901,5.814,4.123,5.814c1.465,0,2.412-0.789,3.043-2.006l0.045,1.779H120.853z   M117.54,30.792c0,0.563-0.022,1.172-0.293,1.69c-0.271,0.518-0.834,0.924-1.441,0.924c-1.646,0-1.826-2.096-1.826-3.335  c0-1.374,0.068-3.853,1.961-3.853c1.51,0,1.6,1.893,1.6,2.996V30.792z M133.241,30.409c0.022-1.556-0.226-3.177-1.172-4.484  c-0.947-1.307-2.591-2.028-4.191-2.028c-3.561,0-5.565,2.727-5.565,6.107c0,3.402,2.229,5.791,5.655,5.791  c3.875,0,5.205-3.381,5.205-3.943l-3.064-0.226c0,1.06-1.013,1.804-2.028,1.804c-1.441,0-2.208-1.104-2.208-2.457l0.023-0.563  H133.241z M125.872,28.449c0.113-1.307,0.676-2.389,2.142-2.389c1.441,0,1.848,1.148,1.915,2.389H125.872z M134.7,35.568h3.313  V20.109H134.7V35.568z M139.653,35.568h3.313V20.109h-3.313V35.568z"/>
<path fill="#25221F" d="M215.149,12.179c-1.82-5.156-6.067-6.977-11.266-6.977c-2.73,0-5.286,0.607-7.453,2.427  c-2.123,1.776-3.206,4.203-3.206,6.976c0,6.5,5.198,8.06,10.485,9.144c1.819,0.39,5.199,0.866,5.199,3.336s-2.643,3.207-4.636,3.207  c-3.077,0-5.33-1.084-6.197-4.204l-6.412,1.475c1.343,5.806,6.412,8.232,12.002,8.232c2.99,0,6.24-0.564,8.623-2.427  c2.296-1.776,3.684-4.55,3.684-7.453c0-2.946-1.474-5.416-3.9-7.019c-2.08-1.388-5.33-1.993-7.756-2.514  c-1.69-0.304-4.289-0.824-4.289-2.99c0-2.297,2.253-2.773,4.116-2.773c2.643,0,4.246,0.997,5.113,3.51L215.149,12.179"/>
<circle fill="#0079AD" cx="181.008" cy="10.165" r="10.126"/>
<circle fill="none" stroke="#0279B6" stroke-width="0.075" stroke-miterlimit="3.864" cx="181.008" cy="10.165" r="10.126"/>
<path fill-rule="evenodd" clip-rule="evenodd" fill="#E7E7EA" d="M179.455,11.049h1.599c0.352,0,0.785,0,1.097,0.177  c0.311,0.176,0.528,0.541,0.528,0.893c0,0.379-0.177,0.758-0.488,0.962c-0.338,0.229-0.839,0.203-1.232,0.203h-1.503V11.049   M179.455,7.366h1.313c0.365,0,0.935-0.04,1.246,0.136c0.298,0.176,0.461,0.501,0.461,0.839c0,0.313-0.137,0.65-0.394,0.841  c-0.325,0.243-0.771,0.215-1.15,0.215h-1.477V7.366z M177.288,5.713v9.289h4.157c0.799,0,1.707,0,2.384-0.501  c0.649-0.473,1.137-1.191,1.137-2.004c0-1.205-0.784-2.085-1.936-2.314v-0.027c0.975-0.244,1.679-0.948,1.679-2.004  c0-0.881-0.393-1.557-1.138-2.031c-0.636-0.407-1.394-0.407-2.126-0.407H177.288z"/>
</svg>